<?xml version="1.0" encoding="utf-8"?>
<!-- Generator: Adobe Illustrator 26.0.1, SVG Export Plug-In . SVG Version: 6.00 Build 0)  -->
<svg version="1.1" id="レイヤー_1" xmlns="http://www.w3.org/2000/svg" xmlns:xlink="http://www.w3.org/1999/xlink" x="0px"
	 y="0px" viewBox="0 0 866.9 135.2" style="enable-background:new 0 0 866.9 135.2;" xml:space="preserve">
<style type="text/css">
	.st0{fill:#00205B;}
	.st1{enable-background:new    ;}
	.st2{fill:#FFFFFF;}
</style>
<g>
	
		<text transform="matrix(1 0 0 1 252.3372 -565.5602)" class="st0" style="font-family:'TsukuARdGothicStd-B-90ms-RKSJ-H'; font-size:72px; letter-spacing:1;">迷子者</text>
	
		<text transform="matrix(1 0 0 1 402.0971 -565.5602)" class="st0" style="font-family:'TsukuARdGothicStd-B-90ms-RKSJ-H'; font-size:72px; letter-spacing:-14;">マ</text>
	
		<text transform="matrix(1 0 0 1 458.2571 -565.5602)" class="st0" style="font-family:'TsukuARdGothicStd-B-90ms-RKSJ-H'; font-size:72px; letter-spacing:-9;">ッ</text>
	
		<text transform="matrix(1 0 0 1 520.1771 -565.5602)" class="st0" style="font-family:'TsukuARdGothicStd-B-90ms-RKSJ-H'; font-size:72px; letter-spacing:-3;">チン</text>
	
		<text transform="matrix(1 0 0 1 655.5371 -565.5602)" class="st0" style="font-family:'TsukuARdGothicStd-B-90ms-RKSJ-H'; font-size:72px; letter-spacing:1;">グ</text>
	<g>
		<g>
			<path class="st0" d="M179.4-600.4l-3-1.1c-2.8-1-5.9,0.4-6.9,3.1s0.4,5.8,3.1,6.9l6.8,2.6L179.4-600.4L179.4-600.4z"/>
			<path class="st0" d="M219.8-598.2c0,0.1-0.1,0.2-0.1,0.3v37.1c0,1-0.4,2-1.1,2.6c-0.7,0.7-1.6,1.1-2.6,1.1h-27.4
				c0.1-0.2,0.2-0.5,0.4-0.7c0.2-0.5,0.3-1,0.3-1.4c0-0.8-0.2-1.6-0.7-2.3c-0.5-0.7-1.1-1.2-1.9-1.5l-4.2-1.6l0,0
				c-0.5-0.2-1-0.3-1.4-0.3c-0.8,0-1.6,0.2-2.3,0.7c-0.7,0.5-1.2,1.1-1.5,1.9c-0.2,0.5-0.3,1-0.3,1.4c0,0.8,0.2,1.6,0.7,2.3
				c0.5,0.7,1.1,1.2,1.9,1.5l4.2,1.6c0.5,0.2,1,0.3,1.4,0.3c0.8,0,1.6-0.2,2.3-0.7c0.1-0.1,0.2-0.2,0.3-0.3
				c3.4,2.8,8.6,5.6,16.5,5.8c16.4,0.4,20.8-11.8,23.1-25.1c0,0,5.7-25.5,6-26.9C235.3-609,223.4-611,219.8-598.2z"/>
			<path class="st0" d="M182.2-614.6v26.5l2.4,0.9c0.4,0.1,0.8,0.3,1.1,0.6v-22.9h27.5v39.7h-23.6c-0.1,0.5-0.2,1-0.3,1.4
				c-0.4,1.2-1.2,2.1-2.2,2.8c-0.3,0.2-0.5,0.3-0.8,0.5l0.8,0.3c1.2,0.5,2.1,1.2,2.8,2.2c0.5,0.8,0.9,1.7,1,2.7H216
				c0.3,0,0.5-0.1,0.7-0.3c0.2-0.2,0.3-0.4,0.3-0.7v-53.8c0-0.3-0.1-0.5-0.3-0.7c-0.2-0.2-0.4-0.3-0.7-0.3h-32.8
				c-0.3,0-0.5,0.1-0.7,0.3C182.3-615.1,182.2-614.9,182.2-614.6z M199.5-562.9c-0.9,0-1.6-0.7-1.6-1.6c0-0.9,0.7-1.6,1.6-1.6
				c0.9,0,1.6,0.7,1.6,1.6C201.2-563.6,200.5-562.9,199.5-562.9z"/>
			<path class="st0" d="M182.4-566.6c0.5,0.2,1,0.3,1.4,0.3c0.8,0,1.6-0.2,2.3-0.7c0.7-0.5,1.2-1.1,1.5-1.9c0.2-0.5,0.3-1,0.3-1.4
				c0-0.8-0.2-1.6-0.7-2.3c-0.5-0.7-1.1-1.2-1.9-1.5l-4.2-1.6c-0.5-0.2-1-0.3-1.4-0.3c-0.8,0-1.6,0.2-2.3,0.7
				c-0.7,0.5-1.2,1.1-1.5,1.9c-0.2,0.5-0.3,1-0.3,1.4c0,0.8,0.2,1.6,0.7,2.3c0.5,0.7,1.1,1.2,1.9,1.5L182.4-566.6z"/>
			<path class="st0" d="M181.1-577.9c0.5,0.2,1,0.3,1.4,0.3c0.8,0,1.6-0.2,2.3-0.7c0.7-0.5,1.2-1.1,1.5-1.9c0.2-0.5,0.3-1,0.3-1.4
				c0-0.8-0.2-1.6-0.7-2.3c-0.5-0.7-1.1-1.2-1.9-1.5l-4.2-1.6c-0.5-0.2-1-0.3-1.4-0.3c-0.8,0-1.6,0.2-2.3,0.7
				c-0.7,0.5-1.2,1.1-1.5,1.9c-0.2,0.5-0.3,1-0.3,1.4c0,0.8,0.2,1.6,0.7,2.3c0.5,0.7,1.1,1.2,1.9,1.5L181.1-577.9z"/>
			<path class="st0" d="M173.1-617.4c-0.2,0.7,0.2,1.5,0.9,1.8s1.5-0.2,1.8-0.9c0.8-2.6,3.1-4.7,5.9-5.3c0.8-0.1,1.2-0.9,1.1-1.6
				c-0.1-0.8-0.9-1.2-1.6-1.1C177.3-623.8,174.3-620.9,173.1-617.4z"/>
			<path class="st0" d="M180.4-631.6c0.8-0.2,1.2-0.9,1.1-1.6c-0.1-0.8-0.9-1.2-1.6-1.1c-7.7,1.5-13.6,7-15.8,14
				c-0.2,0.7,0.2,1.5,0.9,1.8s1.5-0.2,1.8-0.9C168.7-625.5,173.8-630.3,180.4-631.6z"/>
		</g>
	</g>
	<g>
		<path class="st0" d="M201.1-599.9c1.7,0,3.1-1.4,3.1-3.2s-1.4-3.1-3.1-3.1c-1.7,0-3.1,1.4-3.1,3.1
			C198-601.3,199.4-599.9,201.1-599.9z"/>
		<path class="st0" d="M209.7-590.4l-3.6-1.9l-1.5-3.1c-0.8-1.6-2.2-2.7-4-3l-1.6-0.3c-0.8-0.1-1.6,0-2.3,0.3l-4.6,2.2
			c-0.5,0.2-0.9,0.7-1.1,1.2l-2,4.7c-0.1,0.3-0.1,0.6,0,0.9c0.1,0.3,0.4,0.5,0.7,0.7l0.1,0c0.6,0.2,1.3,0,1.6-0.6l1.9-4l2.9-1
			l-2.9,13l-2.8,7.1c-0.2,0.4-0.1,0.8,0.1,1.2s0.5,0.7,0.9,0.8l0.1,0c0.6,0.2,1.4-0.1,1.7-0.7l3.4-5.8l2-4l3.7,4l2.7,5.7
			c0.3,0.7,1,1,1.7,0.8l0,0c0.4-0.1,0.7-0.4,0.9-0.7s0.2-0.8,0.1-1.2l-2-5.8c-0.3-0.8-0.7-1.6-1.2-2.2l-3.2-4.3l1.2-6.2l1.5,2
			c0.2,0.2,0.4,0.4,0.7,0.6l4,1.8c0.3,0.1,0.6,0.1,0.9,0c0.3-0.1,0.5-0.3,0.7-0.6l0,0C210.5-589.5,210.2-590.2,209.7-590.4z"/>
	</g>
</g>
<text transform="matrix(1 0 0 1 252.3372 -396.0487)" class="st0" style="font-family:'TsukuARdGothicStd-B-90ms-RKSJ-H'; font-size:72px; letter-spacing:1;">あんしん見守り</text>
<g>
	<g>
		<path class="st0" d="M179.4-430.9l-3-1.1c-2.8-1-5.9,0.4-6.9,3.1s0.4,5.8,3.1,6.9l6.8,2.6L179.4-430.9L179.4-430.9z"/>
		<path class="st0" d="M219.8-428.7c0,0.1-0.1,0.2-0.1,0.3v37.1c0,1-0.4,2-1.1,2.6c-0.7,0.7-1.6,1.1-2.6,1.1h-27.4
			c0.1-0.2,0.2-0.5,0.4-0.7c0.2-0.5,0.3-1,0.3-1.4c0-0.8-0.2-1.6-0.7-2.3s-1.1-1.2-1.9-1.5l-4.2-1.6l0,0c-0.5-0.2-1-0.3-1.4-0.3
			c-0.8,0-1.6,0.2-2.3,0.7s-1.2,1.1-1.5,1.9c-0.2,0.5-0.3,1-0.3,1.4c0,0.8,0.2,1.6,0.7,2.3s1.1,1.2,1.9,1.5l4.2,1.6
			c0.5,0.2,1,0.3,1.4,0.3c0.8,0,1.6-0.2,2.3-0.7c0.1-0.1,0.2-0.2,0.3-0.3c3.4,2.8,8.6,5.6,16.5,5.8c16.4,0.4,20.8-11.8,23.1-25.1
			c0,0,5.7-25.5,6-26.9C235.3-439.5,223.4-441.5,219.8-428.7z"/>
		<path class="st0" d="M182.2-445.1v26.5l2.4,0.9c0.4,0.1,0.8,0.4,1.1,0.6V-440h27.5v39.7h-23.6c-0.1,0.5-0.2,1-0.3,1.4
			c-0.4,1.2-1.2,2.1-2.2,2.8c-0.3,0.2-0.5,0.3-0.8,0.5l0.8,0.3c1.2,0.5,2.1,1.2,2.8,2.2c0.5,0.8,0.9,1.7,1,2.7H216
			c0.3,0,0.5-0.1,0.7-0.3c0.2-0.2,0.3-0.4,0.3-0.7v-53.8c0-0.3-0.1-0.5-0.3-0.7s-0.4-0.3-0.7-0.3h-32.8c-0.3,0-0.5,0.1-0.7,0.3
			C182.3-445.6,182.2-445.4,182.2-445.1z M199.5-393.4c-0.9,0-1.6-0.7-1.6-1.6c0-0.9,0.7-1.6,1.6-1.6c0.9,0,1.6,0.7,1.6,1.6
			C201.2-394.1,200.5-393.4,199.5-393.4z"/>
		<path class="st0" d="M182.4-397.1c0.5,0.2,1,0.3,1.4,0.3c0.8,0,1.6-0.2,2.3-0.7s1.2-1.1,1.5-1.9c0.2-0.5,0.3-1,0.3-1.4
			c0-0.8-0.2-1.6-0.7-2.3s-1.1-1.2-1.9-1.5l-4.2-1.6c-0.5-0.2-1-0.3-1.4-0.3c-0.8,0-1.6,0.2-2.3,0.7s-1.2,1.1-1.5,1.9
			c-0.2,0.5-0.3,1-0.3,1.4c0,0.8,0.2,1.6,0.7,2.3s1.1,1.2,1.9,1.5L182.4-397.1z"/>
		<path class="st0" d="M181.1-408.3c0.5,0.2,1,0.3,1.4,0.3c0.8,0,1.6-0.2,2.3-0.7s1.2-1.1,1.5-1.9c0.2-0.5,0.3-1,0.3-1.4
			c0-0.8-0.2-1.6-0.7-2.3s-1.1-1.2-1.9-1.5l-4.2-1.6c-0.5-0.2-1-0.3-1.4-0.3c-0.8,0-1.6,0.2-2.3,0.7c-0.7,0.5-1.2,1.1-1.5,1.9
			c-0.2,0.5-0.3,1-0.3,1.4c0,0.8,0.2,1.6,0.7,2.3s1.1,1.2,1.9,1.5L181.1-408.3z"/>
		<path class="st0" d="M173.1-447.8c-0.2,0.7,0.2,1.5,0.9,1.8s1.5-0.2,1.8-0.9c0.8-2.6,3.1-4.7,5.9-5.3c0.8-0.1,1.2-0.9,1.1-1.6
			c-0.1-0.8-0.9-1.2-1.6-1.1C177.3-454.2,174.3-451.4,173.1-447.8z"/>
		<path class="st0" d="M180.4-462.1c0.8-0.1,1.2-0.9,1.1-1.6c-0.1-0.8-0.9-1.2-1.6-1.1c-7.7,1.5-13.6,7-15.8,14
			c-0.2,0.7,0.2,1.5,0.9,1.8s1.5-0.2,1.8-0.9C168.7-456,173.8-460.8,180.4-462.1z"/>
	</g>
</g>
<g>
	<path class="st0" d="M201.1-430.3c1.7,0,3.1-1.4,3.1-3.1s-1.4-3.1-3.1-3.1c-1.7,0-3.1,1.4-3.1,3.1
		C198-431.8,199.4-430.3,201.1-430.3z"/>
	<path class="st0" d="M209.7-420.9l-3.6-1.9l-1.5-3.1c-0.8-1.6-2.2-2.7-4-3l-1.6-0.3c-0.8-0.1-1.6,0-2.3,0.3l-4.6,2.1
		c-0.5,0.2-0.9,0.7-1.1,1.2l-2,4.7c-0.1,0.3-0.1,0.6,0,0.9c0.1,0.3,0.4,0.5,0.7,0.7l0.1,0c0.6,0.2,1.3,0,1.6-0.6l1.9-4l2.9-1
		l-2.9,13l-2.8,7.1c-0.2,0.4-0.1,0.8,0.1,1.2s0.5,0.7,0.9,0.8l0.1,0c0.6,0.2,1.4-0.1,1.7-0.7l3.4-5.8l2-4l3.7,4l2.7,5.7
		c0.3,0.6,1,1,1.7,0.8l0,0c0.4-0.1,0.7-0.4,0.9-0.7s0.2-0.8,0.1-1.2l-2-5.8c-0.3-0.8-0.7-1.6-1.2-2.2l-3.2-4.3l1.2-6.2l1.5,2
		c0.2,0.2,0.4,0.4,0.7,0.6l4,1.8c0.3,0.1,0.6,0.1,0.9,0c0.3-0.1,0.5-0.4,0.7-0.6l0,0C210.5-420,210.2-420.6,209.7-420.9z"/>
</g>
<g>
	<g class="st1">
		<path class="st2" d="M181.7,100.4c-4.3,3.1-8.6,5.8-12.6,7.9c-7.2,3.7-18.2,1.9-16.9-13.7c0.9-11.4,10.2-24,20.7-30.7
			c1.5-0.9,3.1-1.9,4.9-2.8c0.3-4.4,0.8-9,1.4-13.8c-5.6,0.3-10.5,0-14.5-1.2c-6.8-2-4.5-12.6,3.2-10.2c3.2,1,7.6,1.3,12.5,0.9
			c0.5-3.4,1-6.8,1.5-10.3c1.3-8.6,12.5-6.7,11.2,0.2c-0.5,2.9-1,5.8-1.5,8.5c5.3-1.2,10.7-2.7,15.6-4.5C214,28.2,219.1,38,210,41
			c-6.4,2.1-13.3,3.9-20,5.1c-0.6,3.7-1,7.1-1.5,10.3c4.1-1.4,8.2-2.3,12.2-2.5c0.5,0,0.9,0,1.4,0v-0.2c0.8-6.8,11.5-4.6,11,0.9
			c33.8,6.1,32.1,48.8-7.4,61.7c-10.4,3.5-13.3-7.3-3.8-10.4c28.8-9.4,30-36.7,9-41.9c-3.8,10.9-11.4,20.7-20,28.8
			c0.3,0.8,0.8,1.6,1.3,2.3c4.1,6.7-5.6,14.1-10,5.9L181.7,100.4z M177.2,71.9c-9.2,6.7-14.4,14.9-14.8,21.8
			c-0.3,4.6,2.8,5.1,5.8,3.5c3.5-2,7-4.2,10.3-6.7C177.4,85,177.1,78.7,177.2,71.9z M199.3,63.3c-3.4,0.3-7.8,1.5-11.9,3.1
			c-0.5,5.9-0.3,11.1,0.2,15.8c5.2-5.4,9.5-11.8,12-18.9H199.3z"/>
		<path class="st2" d="M300.4,96.1c0-5.3,0.8-8.6,0.6-13.8c-0.6-12.9-18.2-2-21.4,3.8c-2.8,5-6,10.1-7.3,15.8
			c-2.1,8.9-4.6,9.5-7,9.8c-4.1,0.6-9.5-2.2-6.8-8.9c5.2-13.1,11.8-24.7,18.5-35.1s12.7-20.3,18.4-29.3c2-3.2,5.1-7.3,6.4-9.6
			c3.8-6.8,14.6-1,10.8,6.3c-0.9,1.6-1.7,2.9-2.7,4.1c-0.9,1.2-2.1,2.4-3.4,3.9c-5.6,6.3-9.3,11.1-12.3,15.4c-3,4.3-5.3,8-7.9,11.8
			c-0.8,1.2-0.5,0.9,0.3,0.2c4.2-3.7,24.2-9.2,25.8,10.4c0.3,4.5-0.6,8.5-0.6,12.7c0,10.3,10,9,16.8,2.9c5.9-5.3,8.5-10.9,10.5-16.2
			c3.4-8.6,15.5-2.7,11.1,6c-3.2,6.4-7.8,13.9-14.6,19.2C323.4,115.4,300.2,118,300.4,96.1z"/>
		<path class="st2" d="M378.9,91.2c-0.5-12.2,0.8-22,1.4-34.3c0.3-7.5,1.2-18.9,0.9-26.1c-0.2-8.6,12.9-7.9,12.6-0.2
			c-0.2,7.3-1,18.3-1.6,26.1c-0.8,12.3-2.5,22.8-2.1,34.1c0.7,16.9,21.3,15.8,41.5-0.1c7.5-5.9,14.6,4.7,8,10.1
			C417,119.1,379.9,122.5,378.9,91.2z"/>
		<path class="st2" d="M504.8,96.1c0-5.3,0.8-8.6,0.6-13.8c-0.6-12.9-18.2-2-21.4,3.8c-2.8,5-6,10.1-7.3,15.8
			c-2.1,8.9-4.6,9.5-7,9.8c-4.1,0.6-9.5-2.2-6.8-8.9c5.2-13.1,11.8-24.7,18.5-35.1c6.7-10.4,12.7-20.3,18.4-29.3
			c2-3.2,5.1-7.3,6.4-9.6c3.8-6.8,14.6-1,10.8,6.3c-0.9,1.6-1.7,2.9-2.7,4.1c-0.9,1.2-2.1,2.4-3.4,3.9c-5.6,6.3-9.3,11.1-12.3,15.4
			c-3,4.3-5.3,8-7.9,11.8c-0.8,1.2-0.5,0.9,0.3,0.2c4.2-3.7,24.2-9.2,25.8,10.4c0.3,4.5-0.6,8.5-0.6,12.7c0,10.3,10,9,16.8,2.9
			c5.9-5.3,8.5-10.9,10.5-16.2c3.4-8.6,15.5-2.7,11.1,6c-3.2,6.4-7.8,13.9-14.6,19.2C527.7,115.4,504.5,118,504.8,96.1z"/>
		<path class="st2" d="M577.6,119.6c-3.7,0-5.9-2.8-5.9-5.4c0-2.4,1.6-4.7,5.2-5.2c15.1-2.1,24.7-7.9,29.3-17.7
			c1.2-2.5,3.2-3.5,5.2-3.5c3,0,6.1,2.4,6.1,5.4c0,0.8-0.2,1.5-0.6,2.3C606.7,117.3,577.6,119.6,577.6,119.6z M604.3,85.5
			c-8.3-0.2-13.3-5-13.6-11.6c-0.2-5.1-0.3-13.4-0.3-21.5c0-8.2,0.1-16.2,0.3-20.7c0.2-5.4,3.7-11,12.7-11.4
			c5.3-0.2,12.3-0.2,19.5-0.2c7.1,0,14.4,0,20.3,0.2c7,0.2,11.8,5.4,12,10.5c0.2,5.1,0.3,12.5,0.3,20.2c0,8.5-0.1,17-0.3,22.7
			c-0.2,6.3-5.1,11.6-12.6,11.8c-2,0-3.9,0.2-5.9,0.2c-0.1,4.6-0.2,10.1-0.2,13.8c0,6.4,1.4,7.9,11.4,7.9c8.9,0,14.5-1.4,14.5-11.8
			c0-3.7,2.7-5.4,5.4-5.4c2,0,6.1,0.9,6.1,6.3c0,19.9-13.4,21.4-26.6,21.4c-11.7,0-21.8-1.2-21.8-14c0-3.1,0-11.8,0.1-18.1
			C618.4,85.8,611,85.6,604.3,85.5z M644.8,48.3h-43.9v9h43.9V48.3z M644.7,39.4c0-1.7-0.2-3.4-0.2-4.6c-0.1-3-1.6-4.8-5.4-5
			c-3.8-0.1-8.9-0.2-14.4-0.2c-6.5,0-13.2,0.1-18.1,0.2c-3.6,0.1-5.3,2.7-5.4,5.1c0,1.3-0.1,2.8-0.1,4.5H644.7z M601,66.3
			c0,1.7,0.1,3.2,0.1,4.6c0.1,3.7,2.2,5,5.6,5.1c5.3,0.2,11.1,0.3,17,0.3c5.2,0,10.4-0.1,15.4-0.3c5.6-0.2,5.6-4.5,5.6-9.7H601z"/>
		<path class="st2" d="M765.4,70.5v17.6l0.2,13.3c0,0.1,0,0.2,0,0.2c0,7.2-3.7,16.9-20.4,16.9c-10.7,0-15.5-1.9-15.5-7
			c0-2.8,2-5.6,5.4-5.6c0.5,0,0.9,0,1.4,0.1c3.5,0.7,6.6,1.2,9,1.2c5.1,0,8-1.9,8-7.6V70.4L699,70.5c-3.6,0-5.3-2.5-5.3-5.1
			c0-2.4,1.7-5,5.3-5l54.6,0.1v-9.7c0-3.6,3-5.4,6-5.4c2.9,0,5.8,1.9,5.8,5.4v9.7l21.5-0.1c3.2,0,5,2.5,5,5.1s-1.6,5-5,5H765.4z
			 M749,29.5c8.8,0,17.6,0.1,26.4,0.2c6.3,0.1,12.6,5,12.9,11.7c0.1,1.7,0.1,3.9,0.1,6c0,4.2,0,9.2-6.3,9.2c-3,0-5.8-1.6-5.8-4.9
			c0-0.1,0-0.1,0-0.2c0-10.9-0.1-11.9-7.3-12.2c-9.2-0.1-19.3-0.2-29.3-0.2c-8.1,0-16.1,0.1-23.2,0.2c-6.4,0.1-7.3,1.7-7.6,6
			c0,0,0,0,0,6.5v0.1c0,3.2-2.9,5-5.8,5c-2.9,0-5.7-1.6-5.8-5.2c0-1.5-0.1-3.4-0.1-5.2c0-1.9,0.1-3.8,0.1-5.7
			c0.2-5.4,4.4-11,13.3-11.1c8.7-0.1,17.5-0.2,26.3-0.2v-8.7c0-3.6,3-5.3,6-5.3c3,0,6,1.7,6,5.3V29.5z M730.9,95
			c-3.7-4.4-9.6-8.8-15.3-11.4c-2-0.9-2.9-2.4-2.9-4.1c0-2.7,2.4-5.3,5.6-5.3c2.8,0,22.4,9.4,22.4,16.7c0,3.2-2.8,6.1-5.8,6.1
			C733.5,97.1,732,96.5,730.9,95z"/>
		<path class="st2" d="M831.9,108.4c18-11.7,28.2-36.7,20.2-60.9c-3.8-11.6-14.8-7.3-18.2-0.1c-3.4,7.1-3.6,11.8-3,21.9
			c0.6,11.2-11.9,11.1-12.6,2.8c-0.7-9.2,1.3-20.3,2.7-26.8c1.3-5.9,3.5-13.6,4.4-20.6c0.9-7.3,12.2-5.9,11.6,1
			c-0.3,3.9-1.7,8-3,10.8c-1.5,3.1-0.3,1.6,0.8,0.1c8.5-10.9,23.5-6.1,28.3,7c8.5,23.4,4.3,53.9-22.9,73.9
			C830.6,124.3,822.2,114.7,831.9,108.4z"/>
	</g>
	<g>
		<g>
			<g>
				<path class="st2" d="M24.8,54.6l-4.9-1.8c-4.4-1.7-9.4,0.6-11.1,5s0.6,9.4,5,11.1L24.8,73L24.8,54.6L24.8,54.6z"/>
				<path class="st2" d="M89.7,58.2c0,0.2-0.1,0.3-0.1,0.5v59.6c0,1.7-0.7,3.2-1.8,4.2c-1.1,1.1-2.6,1.8-4.2,1.8H39.5
					c0.2-0.4,0.4-0.7,0.6-1.1c0.3-0.8,0.4-1.5,0.4-2.3c0-1.3-0.4-2.6-1.1-3.7s-1.8-1.9-3.1-2.4l-6.8-2.6l0,0
					c-0.8-0.3-1.5-0.4-2.3-0.4c-1.3,0-2.6,0.4-3.7,1.1s-1.9,1.8-2.4,3.1c-0.3,0.8-0.4,1.5-0.4,2.3c0,1.3,0.4,2.6,1.1,3.7
					c0.7,1.1,1.8,1.9,3.1,2.4l6.8,2.6c0.8,0.3,1.5,0.4,2.3,0.4c1.3,0,2.6-0.4,3.7-1.1c0.2-0.1,0.4-0.3,0.5-0.4
					c5.4,4.6,13.9,9,26.5,9.3c26.4,0.6,33.4-18.9,37.2-40.4c0,0,9.1-41,9.7-43.2C114.7,40.8,95.5,37.6,89.7,58.2z"/>
				<path class="st2" d="M29.3,31.7v42.6l3.9,1.5c0.6,0.2,1.3,0.6,1.8,0.9V40h44.2v63.9H41.4c-0.1,0.8-0.3,1.5-0.5,2.3
					c-0.7,1.9-2,3.5-3.6,4.5c-0.4,0.3-0.9,0.5-1.3,0.7l1.3,0.5c1.9,0.7,3.5,2,4.5,3.6c0.9,1.3,1.4,2.8,1.6,4.3h40.1
					c0.4,0,0.8-0.2,1.1-0.4c0.3-0.3,0.4-0.6,0.4-1.1V31.7c0-0.4-0.2-0.8-0.4-1.1c-0.3-0.3-0.6-0.4-1.1-0.4H30.8
					c-0.4,0-0.8,0.2-1.1,0.4C29.4,30.9,29.3,31.3,29.3,31.7z M57.1,115c-1.4,0-2.6-1.2-2.6-2.6c0-1.4,1.2-2.6,2.6-2.6
					c1.4,0,2.6,1.2,2.6,2.6C59.8,113.8,58.6,115,57.1,115z"/>
				<path class="st2" d="M29.6,109c0.8,0.3,1.5,0.4,2.3,0.4c1.3,0,2.6-0.4,3.7-1.1s1.9-1.8,2.4-3.1c0.3-0.8,0.4-1.5,0.4-2.3
					c0-1.3-0.4-2.6-1.1-3.7s-1.8-1.9-3.1-2.4l-6.8-2.6c-0.8-0.3-1.5-0.4-2.3-0.4c-1.3,0-2.6,0.4-3.7,1.1c-1.1,0.7-1.9,1.8-2.4,3.1
					c-0.3,0.8-0.4,1.5-0.4,2.3c0,1.3,0.4,2.6,1.1,3.7s1.8,1.9,3.1,2.4L29.6,109z"/>
				<path class="st2" d="M27.5,90.9c0.8,0.3,1.5,0.4,2.3,0.4c1.3,0,2.6-0.4,3.7-1.1c1.1-0.7,1.9-1.8,2.4-3.1
					c0.3-0.8,0.4-1.5,0.4-2.3c0-1.3-0.4-2.6-1.1-3.7s-1.8-1.9-3.1-2.4l-6.8-2.6c-0.8-0.3-1.5-0.4-2.3-0.4c-1.3,0-2.6,0.4-3.7,1.1
					c-1.1,0.7-1.9,1.8-2.4,3.1c-0.3,0.8-0.4,1.5-0.4,2.3c0,1.3,0.4,2.6,1.1,3.7s1.8,1.9,3.1,2.4L27.5,90.9z"/>
				<path class="st2" d="M14.6,27.4c-0.4,1.2,0.3,2.4,1.4,2.8c1.2,0.4,2.4-0.3,2.8-1.4c1.4-4.2,4.9-7.6,9.5-8.5
					c1.2-0.2,2-1.4,1.8-2.6c-0.2-1.2-1.4-2-2.6-1.8C21.3,17.1,16.5,21.6,14.6,27.4z"/>
				<path class="st2" d="M26.4,4.4c1.2-0.2,2-1.4,1.8-2.6c-0.2-1.2-1.4-2-2.6-1.8C13.2,2.4,3.7,11.4,0.1,22.6
					c-0.4,1.2,0.3,2.4,1.4,2.8C2.7,25.8,4,25.1,4.4,24C7.5,14.2,15.7,6.5,26.4,4.4z"/>
			</g>
		</g>
		<g>
			<path class="st2" d="M59.7,55.5c2.8,0,5.1-2.3,5.1-5.1c0-2.8-2.3-5.1-5.1-5.1c-2.8,0-5.1,2.3-5.1,5.1
				C54.6,53.2,56.9,55.5,59.7,55.5z"/>
			<path class="st2" d="M73.5,70.7l-5.8-3.1l-2.4-5c-1.2-2.5-3.6-4.3-6.4-4.9l-2.5-0.5c-1.3-0.2-2.6-0.1-3.7,0.5l-7.3,3.5
				c-0.8,0.4-1.5,1.1-1.8,1.9l-3.3,7.6c-0.2,0.5-0.2,1,0,1.5c0.2,0.5,0.6,0.9,1.1,1.1l0.1,0c1,0.4,2.1,0,2.5-1l3-6.5l4.7-1.5
				l-4.7,20.9l-4.6,11.4c-0.3,0.6-0.2,1.3,0.1,1.9c0.3,0.6,0.9,1.1,1.5,1.3l0.2,0c1,0.3,2.2-0.2,2.7-1.1l5.4-9.4l3.2-6.4l5.9,6.5
				l4.4,9.2c0.5,1,1.7,1.6,2.8,1.3l0,0c0.6-0.2,1.2-0.6,1.5-1.2c0.3-0.6,0.4-1.3,0.2-1.9L67,87.6c-0.5-1.3-1.1-2.5-2-3.6l-5.2-6.9
				l1.9-9.9l2.5,3.1c0.3,0.4,0.7,0.7,1.1,0.9l6.5,2.9c0.5,0.2,1,0.2,1.5,0c0.5-0.2,0.9-0.6,1.1-1l0,0C74.7,72.2,74.3,71.1,73.5,70.7
				z"/>
		</g>
	</g>
</g>
</svg>
