<?xml version="1.0" encoding="utf-8"?>
<!-- Generator: Adobe Illustrator 26.0.1, SVG Export Plug-In . SVG Version: 6.00 Build 0)  -->
<svg version="1.1" id="レイヤー_1" xmlns="http://www.w3.org/2000/svg" xmlns:xlink="http://www.w3.org/1999/xlink" x="0px"
	 y="0px" viewBox="0 0 464.63 485.62" style="enable-background:new 0 0 464.63 485.62;" xml:space="preserve">
<style type="text/css">
	.st0{fill:#3A3A3A;}
</style>
<g>
	<g>
		<path class="st0" d="M392.21,245.76c0-9.25-7.5-16.74-16.75-16.74c-9.25,0-16.74,7.5-16.74,16.74c0,69.7-56.7,126.4-126.4,126.4
			c-69.7,0-126.4-56.7-126.4-126.4c0-9.25-7.5-16.74-16.75-16.74c-9.25,0-16.75,7.5-16.75,16.74c0,82.51,62.82,150.62,143.15,159.02
			v47.35h-38.96c-9.25,0-16.75,7.5-16.75,16.75c0,9.25,7.5,16.75,16.75,16.75h111.41c9.25,0,16.74-7.5,16.74-16.75
			c0-9.25-7.5-16.75-16.74-16.75h-38.96v-47.35C329.39,396.38,392.21,328.27,392.21,245.76z"/>
		<path class="st0" d="M232.31,341.06c52.42,0,95.3-42.89,95.3-95.3V95.31c0-26.2-10.72-50.03-28-67.3c-17.27-17.28-41.1-28-67.3-28
			c-52.42,0-95.31,42.89-95.31,95.31v150.45C137.01,298.17,179.9,341.06,232.31,341.06z M191.59,67.67h81.43
			c9.25,0,16.74,7.5,16.74,16.74c0,9.25-7.5,16.74-16.74,16.74h-81.43c-9.25,0-16.74-7.5-16.74-16.74
			C174.85,75.17,182.35,67.67,191.59,67.67z M191.59,125.08h81.43c9.25,0,16.74,7.51,16.74,16.76c0,9.25-7.5,16.74-16.74,16.74
			h-81.43c-9.25,0-16.74-7.5-16.74-16.74C174.85,132.59,182.35,125.08,191.59,125.08z M191.59,182.5h81.43
			c9.25,0,16.74,7.5,16.74,16.74c0,9.25-7.5,16.74-16.74,16.74h-81.43c-9.25,0-16.74-7.5-16.74-16.74
			C174.85,190,182.35,182.5,191.59,182.5z M191.59,239.91h81.43c9.25,0,16.74,7.5,16.74,16.74c0,9.25-7.5,16.74-16.74,16.74h-81.43
			c-9.25,0-16.74-7.5-16.74-16.74C174.85,247.4,182.35,239.91,191.59,239.91z"/>
	</g>
	<g>
		<g>
			<path class="st0" d="M85.18,171.73c-4.28,0-8.57-1.64-11.84-4.91c-30.96-30.96-30.96-81.34,0-112.31
				c6.54-6.54,17.14-6.54,23.68,0c6.54,6.54,6.54,17.14,0,23.68c-17.91,17.91-17.91,47.04,0,64.95c6.54,6.54,6.54,17.14,0,23.68
				C93.75,170.09,89.46,171.73,85.18,171.73z"/>
		</g>
		<g>
			<path class="st0" d="M49.73,207.18c-4.28,0-8.57-1.64-11.84-4.91c-50.51-50.51-50.51-132.7,0-183.21
				c6.54-6.54,17.14-6.54,23.68,0c6.54,6.54,6.54,17.14,0,23.68c-37.45,37.46-37.45,98.4,0,135.85c6.54,6.54,6.54,17.14,0,23.68
				C58.3,205.54,54.01,207.18,49.73,207.18z"/>
		</g>
	</g>
	<g>
		<g>
			<path class="st0" d="M379.46,171.73c-4.29,0-8.57-1.64-11.84-4.91c-6.54-6.54-6.54-17.14,0-23.68
				c8.67-8.68,13.45-20.21,13.45-32.48c0-12.26-4.78-23.8-13.45-32.47c-6.54-6.54-6.54-17.14,0-23.68c6.54-6.54,17.14-6.54,23.68,0
				c15,15,23.26,34.94,23.26,56.15c0,21.22-8.26,41.16-23.26,56.16C388.03,170.09,383.74,171.73,379.46,171.73z"/>
		</g>
		<g>
			<path class="st0" d="M414.91,207.18c-4.28,0-8.57-1.64-11.84-4.91c-6.54-6.54-6.54-17.14,0-23.68
				c37.45-37.46,37.45-98.4,0-135.85c-6.54-6.54-6.54-17.14,0-23.68c6.54-6.54,17.14-6.54,23.68,0c50.51,50.51,50.51,132.7,0,183.21
				C423.48,205.54,419.2,207.18,414.91,207.18z"/>
		</g>
	</g>
</g>
</svg>
